<?xml version="1.0" encoding="utf-8"?>
<!-- Generator: Adobe Illustrator 18.1.1, SVG Export Plug-In . SVG Version: 6.00 Build 0)  -->
<svg version="1.1" id="Layer_1" xmlns="http://www.w3.org/2000/svg" xmlns:xlink="http://www.w3.org/1999/xlink" x="0px" y="0px"
	 viewBox="0 0 350.1 378" enable-background="new 0 0 350.1 378" xml:space="preserve">
<path fill="#ccc" d="M283,221.4c-1.6-0.3-3.3-0.2-5-0.2c-68.6,0-137.2,0-205.8,0c-2.3,0-4.7,0.1-6.9,0.7c-8.2,2.5-11.4,12.9-5.3,18.8
	c2.5,2.5,7,4.1,10.6,4.1c34.6,0.3,69.3,0.2,103.9,0.2c31.3,0,62.6,0,93.9,0c4.3,0,8.7,0.1,13,0c6.4-0.2,11.2-4.7,11.7-10.8
	C293.6,227.9,289.4,222.5,283,221.4z M279,284.6c-34.6,0.1-69.3,0-103.9,0c-34,0-67.9,0-101.9,0c-1.8,0-3.7-0.1-5.5,0.1
	c-6,0.6-10.4,5.3-10.6,11.2c-0.2,6,3.7,11.1,9.7,12.1c2.1,0.4,4.3,0.4,6.5,0.4c67.9,0,135.8,0,203.8,0c2.3,0,4.7,0,7-0.5
	c7.1-1.5,11.1-9.1,8.3-15.9C289.8,286.2,285,284.6,279,284.6z M102.1,157.9c-11.2,0-22.3-0.1-33.5,0.1c-6.3,0.1-11.1,4.8-11.5,10.9
	c-0.4,6.2,3.5,11.4,9.7,12.7c1.4,0.3,3,0.3,4.5,0.3c69.3,0,138.5,0,207.8,0c2,0,4-0.2,5.9-0.8c5.2-1.6,8.4-6.4,8.2-11.8
	c-0.2-5.1-3.7-9.7-8.7-10.9c-1.9-0.5-4-0.4-5.9-0.4c-34.5,0-68.9,0-103.4,0C150.7,157.9,126.4,157.9,102.1,157.9z M350.1,50.2
	c0-2.1,0-4.2,0-7.2c-34,0-67.7,0-101.9,0c0-9,0-18,0-26.8c0-10.3-1.7-12.2-11.1-16.2c-0.7,0-1.3,0-2,0c-9.2,4-10.8,6.4-10.8,16.7
	c0,8.6,0,17.3,0,26.3c-32.8,0-65.1,0-98.1,0c0-6,0-12,0-17.9c0-2.8-0.1-5.7-0.1-8.5C126,6.3,124.3,4,115.1,0c-0.7,0-1.3,0-2,0
	C103.7,4,102,6,102,16.4c0,8.6,0,17.6,0,26.6c-33.9,0-67.6,0-101.7,0C0.2,45,0,46.7,0,48.3C0,156.5,0,264.8,0,373c0,1.7,0.1,3,0.1,5
	c116.7,0,233.3,0,350,0c0-20,0.1-40.3,0.1-60.5C350.1,228.4,350.1,139.3,350.1,50.2z M326.1,353c-101,0-201,0-302,0
	c0-95,0-190,0-286c26,0,51.8,0,77.9,0c0,8,0,15.6,0,23.2c0,7.9,4.8,13.4,11.7,13.5c7,0.1,12.1-5.6,12.2-13.7c0.1-7.5,0-15,0-23
	c32.8,0,65.3,0,98.4,0c0,8-0.2,16.3,0,24.2c0.3,9,8.3,14.7,16.2,11.6c5-2,7.6-5.9,7.6-11.4c0-8,0-15.4,0-24.4c26.1,0,52,0,78,0
	C326.1,163,326.1,258,326.1,353z"/>
</svg>
